<?xml version="1.0" encoding="UTF-8"?>
<!DOCTYPE svg PUBLIC "-//W3C//DTD SVG 1.1//EN" "http://www.w3.org/Graphics/SVG/1.1/DTD/svg11.dtd">
<!-- Creator: CorelDRAW -->
<svg xmlns="http://www.w3.org/2000/svg" xml:space="preserve" width="7.91486in" height="4.03408in" style="shape-rendering:geometricPrecision; text-rendering:geometricPrecision; image-rendering:optimizeQuality; fill-rule:evenodd; clip-rule:evenodd"
viewBox="0 0 8006.72 4080.9"
 xmlns:xlink="http://www.w3.org/1999/xlink">
 <defs>
  <style type="text/css">
   <![CDATA[
    .fil3 {fill:#00AFEF}
    .fil0 {fill:#373435;fill-rule:nonzero}
    .fil1 {fill:#606062;fill-rule:nonzero}
    .fil2 {fill:#F79633;fill-rule:nonzero}
   ]]>
  </style>
 </defs>
 <g id="Layer_x0020_1">
  <metadata id="CorelCorpID_0Corel-Layer"/>
  <g id="_421211944">
   <path id="_494315912" class="fil0" d="M3422.28 3035.79c-50.5764,-39.5443 -126.662,-71.5254 -226.166,-95.095 -181.563,-43.4075 -271.365,-109.234 -266.925,-195.658 3.03084,-62.4607 34.0242,-109.429 91.9965,-139.546 50.5684,-25.8597 114.59,-37.5449 189.569,-34.9363 88.1532,3.37733 158.842,29.0379 210.223,76.1612l2.25819 2.07499 33.148 -26.0548 -3.22599 -2.87551c-59.9158,-54.4754 -140.912,-83.8638 -240.719,-87.3526 -83.9395,-3.40919 -155.708,10.0802 -213.668,40.4244 -71.2984,36.7723 -109.504,94.1352 -113.674,170.527 -2.83568,52.3686 21.6858,99.2649 72.9034,139.263 50.6122,39.1938 126.666,71.0395 226.17,94.637 181.52,43.288 271.322,109.767 266.881,197.355 -2.18252,47.2747 -28.6954,88.424 -78.7699,122.365 -54.4436,37.2383 -122.862,54.9414 -202.751,52.1057 -53.7506,-2.302 -103.718,-14.0948 -148.463,-35.0558 -50.652,-23.7967 -85.0905,-56.0844 -102.443,-96.007l-1.30633 -3.10651 -41.0298 13.2943 1.60901 3.75967c20.6862,47.3066 60.9154,85.6958 119.573,114.208 51.5322,24.868 108.843,38.5725 170.257,40.9541 6.01786,0.422167 11.9999,0.573509 17.9739,0.573509 83.0274,0 154.748,-20.3397 213.21,-60.338 60.6884,-41.456 93.0638,-92.335 96.246,-151.223 2.86755,-53.181 -21.6898,-100.38 -72.8755,-140.454z"/>
   <path id="_494314328" class="fil0" d="M7933.6 3035.79c-50.5405,-39.5443 -126.662,-71.5254 -226.166,-95.095 -181.607,-43.4075 -271.365,-109.234 -266.925,-195.658 3.0627,-62.4607 34.0561,-109.429 92.0323,-139.546 50.5325,-25.8597 114.511,-37.5449 189.533,-34.9363 88.1213,3.37733 158.842,29.0379 210.223,76.1612l2.25819 2.07499 33.1799 -26.0548 -3.22599 -2.87551c-59.9477,-54.4754 -140.912,-83.8638 -240.75,-87.3526 -84.1027,-3.453 -155.74,10.1121 -213.668,40.4244 -71.2665,36.7723 -109.504,94.1352 -113.674,170.527 -2.80382,52.3686 21.7217,99.2649 72.9392,139.263 50.5405,39.1938 126.63,71.0395 226.122,94.637 181.532,43.288 271.377,109.767 266.925,197.355 -2.21438,47.2747 -28.6914,88.424 -78.8018,122.365 -54.4436,37.2383 -122.906,54.9414 -202.751,52.1057 -53.7147,-2.302 -103.674,-14.0948 -148.463,-35.0558 -50.6202,-23.7967 -85.1024,-56.0844 -102.455,-96.007l-1.30234 -3.10651 -41.0298 13.2943 1.60503 3.75967c20.734,47.3066 60.9274,85.6958 119.585,114.208 51.5203,24.868 108.843,38.5725 170.257,40.9541 6.01786,0.422167 11.9919,0.573509 17.9739,0.573509 82.9836,0 154.74,-20.3397 213.242,-60.338 60.6566,-41.456 93.032,-92.335 96.246,-151.223 2.83568,-53.181 -21.6898,-100.38 -72.9074,-140.454z"/>
   <polygon id="_494316200" class="fil0" points="4309.21,3378.13 4268.18,3378.13 4268.18,2655.16 4767.39,3352.57 4734.06,3376.44 4309.21,2782.98 "/>
   <polygon id="_494312672" class="fil0" points="4869.79,3389.91 4278.7,2547.45 4312.3,2523.89 4903.4,3366.36 "/>
   <polygon id="_494310752" class="fil0" points="5131.32,3378.13 5090.29,3378.13 5090.29,2598.99 4719.8,3111.59 4686.55,3087.53 5131.32,2472.22 "/>
   <path id="_494310296" class="fil0" d="M1783.96 2584.82c-215.166,0 -390.213,175.012 -390.213,390.177 0,215.166 175.048,390.181 390.213,390.181 215.166,0 390.177,-175.016 390.177,-390.181 0,-106.474 -42.0613,-205.858 -118.466,-279.988 -73.1304,-71.0713 -169.679,-110.189 -271.712,-110.189zm0 824.344c-239.42,0 -434.166,-194.782 -434.166,-434.166 0,-239.416 194.746,-434.119 434.166,-434.119 113.523,0 220.909,43.4832 302.363,122.604 84.9391,82.438 131.8,193.093 131.8,311.515 0,239.384 -194.782,434.166 -434.162,434.166z"/>
   <path id="_494314592" class="fil0" d="M6295.26 2584.82c-215.166,0 -390.257,175.012 -390.257,390.177 0,215.166 175.092,390.181 390.257,390.181 215.134,0 390.221,-175.016 390.221,-390.181 0,-106.474 -42.0693,-205.858 -118.462,-279.988 -73.1782,-71.0713 -169.727,-110.189 -271.76,-110.189zm0 824.344c-239.416,0 -434.154,-194.782 -434.154,-434.166 0,-239.416 194.738,-434.119 434.154,-434.119 113.523,0 220.921,43.4832 302.375,122.604 84.971,82.438 131.788,193.093 131.788,311.515 0,239.384 -194.778,434.166 -434.162,434.166z"/>
   <path id="_494310344" class="fil0" d="M434.154 3409.14c-239.372,0 -434.154,-194.778 -434.154,-434.151 0,-239.416 194.782,-434.135 434.154,-434.135 113.523,0 220.921,43.5309 302.375,122.604l-30.619 31.539c-73.1742,-71.0713 -169.723,-110.189 -271.756,-110.189 -215.122,0 -390.213,175.048 -390.213,390.181 0,215.166 175.092,390.209 390.213,390.209 104.291,0 202.25,-40.6037 275.973,-114.324l31.1009 31.1129c-81.9839,81.9839 -191.066,127.152 -307.074,127.152z"/>
   <path id="_494309384" class="fil1" d="M998.675 3821.39l34.0163 0 0 177.003 -34.0163 0 0 -24.3264c-9.54654,9.38325 -19.9613,16.5043 -31.2682,21.2637 -11.3388,4.78721 -23.5975,7.20073 -36.6648,7.20073 -21.9487,0 -39.0743,-5.13769 -51.3809,-15.4768 -12.3344,-10.2316 -18.5036,-24.0237 -18.5036,-41.225l0 -124.44 33.5264 0 0 124.44c0,11.7609 3.60435,20.5667 10.8051,26.477 7.16887,5.89838 17.9301,8.80576 32.2997,8.80576 17.962,0 32.6343,-5.21336 44.0606,-15.6719 11.4144,-10.4984 17.1256,-23.9002 17.1256,-40.4205l0 -103.63z"/>
   <path id="_494314568" class="fil1" d="M1149.64 3960.83c7.74636,6.71086 15.6719,11.7609 23.8723,15.1701 8.15658,3.37733 16.584,5.10583 25.1627,5.10583 20.5069,0 37.2423,-6.71484 50.2737,-20.0808 13.0195,-13.4456 19.583,-30.9536 19.583,-52.5319 0,-19.4953 -5.68332,-36.0156 -17.0181,-49.5807 -11.2949,-13.5173 -26.3934,-20.2202 -45.2475,-20.2202 -17.0818,0 -30.7982,5.51604 -41.1493,16.6278 -10.3072,11.0679 -15.4768,24.0993 -15.4768,39.0424l0 66.4673zm0 -225.505l0 111.492c8.62654,-9.85321 18.2368,-17.2491 28.8467,-22.1438 10.6219,-4.94253 22.112,-7.39588 34.5261,-7.39588 27.162,0 49.1545,8.80576 65.9337,26.4651 16.7791,17.6274 25.2065,38.9668 25.2065,63.9901 0,27.1182 -9.41909,49.6842 -28.313,67.7338 -18.8422,18.0496 -42.0613,27.0545 -69.5738,27.0545 -10.4227,0 -19.4595,-1.42183 -27.0864,-4.18184 -7.6667,-2.75603 -17.504,-7.92558 -29.5397,-15.4011l-8.89338 15.4449 -25.1309 0 0 -263.058 34.0242 0z"/>
   <path id="_494313968" class="fil1" d="M1374.11 3821.38l34.0242 0 0 177.003 -34.0242 0 0 -177.003zm17.4283 -78.4314c13.4137,0 20.1127,6.96973 20.1127,20.8853 0,14.7161 -6.89406,22.0243 -20.6424,22.0243 -13.2624,0 -19.8538,-7.08125 -19.8538,-21.2637 0,-14.4453 6.78653,-21.646 20.3835,-21.646z"/>
   <path id="_494314832" class="fil1" d="M1631.25 3858.69c-8.08091,-6.54756 -16.4764,-11.4582 -25.099,-14.6723 -8.65441,-3.21404 -17.5836,-4.82305 -26.7717,-4.82305 -19.6228,0 -35.8284,6.82237 -48.6208,20.4193 -12.8044,13.6408 -19.2006,31.2682 -19.2006,52.7589 0,20.2242 5.7112,36.6648 17.1694,49.501 11.4582,12.8283 26.238,19.2365 44.443,19.2365 16.5919,0 30.384,-5.06202 41.452,-15.2179 11.0759,-10.1519 16.6278,-23.251 16.6278,-39.2256l0 -67.9768zm0 222.215l0 -106.617c-9.53459,9.38325 -19.583,16.4326 -30.1172,21.1442 -10.5343,4.67171 -21.5663,7.09319 -33.0564,7.09319 -27.5882,0 -49.732,-8.92524 -66.4793,-26.7797 -16.7433,-17.8226 -25.1309,-38.8154 -25.1309,-62.9586 0,-27.0426 9.53857,-49.6882 28.6635,-67.9967 19.0811,-18.3563 41.8343,-27.5085 68.3113,-27.5085 10.6418,0 20.7618,1.6807 30.4199,5.12574 9.61026,3.37733 18.7346,8.47121 27.3891,15.2896l8.65441 -16.3211 25.4017 0 0 259.529 -34.0561 0z"/>
   <path id="_494315000" class="fil1" d="M1882.47 3821.39l34.0242 0 0 177.003 -34.0242 0 0 -24.3264c-9.53459,9.38325 -19.9613,16.5043 -31.3001,21.2637 -11.3029,4.78721 -23.5218,7.20073 -36.6329,7.20073 -21.9487,0 -39.0743,-5.13769 -51.3689,-15.4768 -12.3344,-10.2316 -18.5036,-24.0237 -18.5036,-41.225l0 -124.44 33.5144 0 0 124.44c0,11.7609 3.60435,20.5667 10.8051,26.477 7.16887,5.89838 17.9301,8.80576 32.2997,8.80576 17.9739,0 32.6462,-5.21336 44.0606,-15.6719 11.4144,-10.4984 17.1256,-23.9002 17.1256,-40.4205l0 -103.63z"/>
   <path id="_494316416" class="fil1" d="M1999.41 3821.38l34.0242 0 0 177.003 -34.0242 0 0 -177.003zm17.4323 -78.4314c13.4098,0 20.1127,6.96973 20.1127,20.8853 0,14.7161 -6.89804,22.0243 -20.6901,22.0243 -13.2146,0 -19.8418,-7.08125 -19.8418,-21.2637 0,-14.4453 6.82237,-21.646 20.4193,-21.646z"/>
   <path id="_494309960" class="fil1" d="M2125.53 3768.59l30.4956 0 0 52.8027 48.9275 0 0 20.1883 -48.9275 0 0 123.743c0,5.21336 2.03118,9.16818 5.97406,11.7729 3.95482,2.7162 9.89304,4.01855 17.8226,4.01855 7.20073,0 15.5963,-1.99533 25.1309,-5.93821l0 23.2192c-11.8685,2.7162 -23.5218,4.09422 -34.8606,4.09422 -13.8678,0 -25.2065,-2.79188 -34.0282,-8.38359 -8.80576,-5.55985 -13.2465,-13.9912 -13.2465,-25.2822l0 -127.243 -35.3744 0 0 -20.1883 35.3744 0 2.71222 -52.8027z"/>
   <path id="_494315840" class="fil1" d="M2359.61 3839.19c-22.57,0 -39.5443,6.55951 -50.9228,19.7024 -11.3388,13.0991 -17.0101,30.9974 -17.0101,53.6709 0,19.4635 5.5957,35.7846 16.7791,48.8518 11.1874,13.1389 26.8594,19.6905 47.0915,19.6905 19.113,0 34.8606,-6.09354 47.2309,-18.2806 12.3822,-12.215 18.5514,-30.0296 18.5514,-53.4439 0,-22.2514 -6.04973,-39.5323 -18.1611,-51.7911 -12.0756,-12.2627 -26.6284,-18.4001 -43.5588,-18.4001zm-2.302 -21.9128c28.2692,0 51.8349,8.43537 70.7647,25.3698 18.886,16.8986 28.3449,39.2695 28.3449,67.1603 0,16.0941 -3.71188,31.3001 -11.1834,45.59 -7.47553,14.2939 -19.0413,25.7084 -34.7132,34.2871 -15.668,8.54688 -33.8609,12.8363 -54.5949,12.8363 -30.7664,0 -55.0489,-8.7739 -72.7959,-26.2062 -17.7031,-17.4642 -26.5845,-39.3053 -26.5845,-65.5872 0,-20.957 5.59172,-39.0106 16.7473,-54.2882 11.1834,-15.2179 24.8242,-25.557 40.9103,-30.9974 16.126,-5.44037 30.4637,-8.16454 43.1048,-8.16454z"/>
   <path id="_494315288" class="fil1" d="M2662.56 3821.39l34.0282 0 0 177.003 -34.0282 0 0 -24.3264c-9.54654,9.38325 -19.9613,16.5043 -31.2642,21.2637 -11.3388,4.78721 -23.5577,7.20073 -36.6648,7.20073 -21.9487,0 -39.0783,-5.13769 -51.3809,-15.4768 -12.3384,-10.2316 -18.5076,-24.0237 -18.5076,-41.225l0 -124.44 33.5264 0 0 124.44c0,11.7609 3.60435,20.5667 10.8051,26.477 7.16887,5.89838 17.9301,8.80576 32.2997,8.80576 17.9739,0 32.6462,-5.21336 44.0606,-15.6719 11.4144,-10.4984 17.1256,-23.9002 17.1256,-40.4205l0 -103.63z"/>
   <path id="_494314088" class="fil1" d="M2768.15 3959.94c25.2145,14.1386 49.2382,21.188 72.1108,21.188 17.6593,0 32.2559,-3.07465 43.746,-9.24385 11.5339,-6.16522 17.3208,-13.9434 17.3208,-23.4024 0,-6.81839 -3.86322,-12.5336 -11.4901,-17.0818 -7.6667,-4.63985 -22.4903,-9.16818 -44.451,-13.6408 -27.0107,-5.55985 -46.733,-11.9162 -59.1431,-19.1249 -12.4579,-7.15692 -18.6271,-17.1615 -18.6271,-29.9221 0,-14.5966 8.35173,-26.8155 25.1309,-36.6648 16.7473,-9.84923 37.4374,-14.7918 62.1103,-14.7918 19.81,0 42.3322,4.835 67.5068,14.4453l0 26.25c-21.415,-12.8801 -43.3756,-19.2763 -65.8978,-19.2763 -15.4768,0 -28.2374,2.79984 -38.1981,8.54688 -10.0006,5.7112 -14.9869,12.6411 -14.9869,20.6862 0,6.82237 4.48452,12.4141 13.4894,16.7473 8.81771,4.52037 23.49,8.73407 44.0288,12.673 50.4131,9.65806 75.6196,26.1743 75.6196,49.4253 0,15.7157 -9.23191,28.9662 -27.6957,39.6518 -18.428,10.7732 -40.8028,16.0981 -67.1245,16.0981 -24.2865,0 -48.7762,-5.40055 -73.449,-16.2056l0 -26.3575z"/>
   <path id="_494317424" class="fil1" d="M3277.3 3906.99c-44.3673,3.74772 -72.4494,8.96108 -84.2143,15.7476 -11.7171,6.7467 -17.6155,15.3573 -17.6155,25.8159 0,9.3952 4.32522,17.2053 12.9478,23.3386 8.57874,6.1254 19.4595,9.23191 32.5705,9.23191 16.353,0 29.8424,-4.71154 40.4085,-14.1744 10.6219,-9.42308 15.9029,-21.5345 15.9029,-36.3262l0 -23.6334zm-117.502 -73.7517c27.5444,-10.6537 50.6879,-15.9746 69.4225,-15.9746 27.0067,0 47.426,5.44037 61.3376,16.1578 13.8678,10.9285 20.8096,25.557 20.8096,43.9531l0 93.5179c0,6.82237 4.66773,10.2316 14.0191,10.2316 4.86686,0 9.72974,-0.923987 14.5966,-2.79984l0 20.0808c-8.65441,2.71222 -17.4721,4.09422 -26.477,4.09422 -23.4024,0 -35.4819,-9.49476 -36.2068,-28.4684 -8.80974,9.42706 -18.6152,16.5521 -29.4242,21.3114 -10.8369,4.78721 -22.5222,7.15692 -35.1314,7.15692 -20.5388,0 -37.6963,-5.12972 -51.6079,-15.433 -13.8678,-10.2754 -20.7977,-22.8408 -20.7977,-37.7401 0,-15.7476 8.6106,-28.771 25.8159,-39.1978 17.1694,-10.3391 54.2564,-17.4283 111.145,-21.188l0 -15.202c0,-10.0046 -4.70357,-18.3244 -14.1744,-24.7963 -9.45892,-6.54756 -21.188,-9.76161 -35.2429,-9.76161 -20.0051,0 -42.6786,6.89406 -68.0843,20.6862l0 -26.6284z"/>
   <path id="_494316680" class="fil1" d="M3534.73 3821.39l34.0242 0 0 177.003 -34.0242 0 0 -24.3264c-9.53857,9.38325 -19.9613,16.5043 -31.2563,21.2637 -11.3507,4.78721 -23.6015,7.20073 -36.6648,7.20073 -21.9606,0 -39.0863,-5.13769 -51.3809,-15.4768 -12.3384,-10.2316 -18.5076,-24.0237 -18.5076,-41.225l0 -124.44 33.5264 0 0 124.44c0,11.7609 3.59638,20.5667 10.8051,26.477 7.15692,5.89838 17.9301,8.80576 32.2878,8.80576 17.9739,0 32.6462,-5.21336 44.0606,-15.6719 11.4264,-10.4984 17.1296,-23.9002 17.1296,-40.4205l0 -103.63z"/>
   <path id="_494317472" class="fil1" d="M3663.56 3768.59l30.4956 0 0 52.8027 48.9235 0 0 20.1883 -48.9235 0 0 123.743c0,5.21336 2.03118,9.16818 5.97406,11.7729 3.95084,2.7162 9.88109,4.01855 17.8186,4.01855 7.20073,0 15.5883,-1.99533 25.1309,-5.93821l0 23.2192c-11.8804,2.7162 -23.5218,4.09422 -34.8287,4.09422 -13.9116,0 -25.2503,-2.79188 -34.0561,-8.38359 -8.81771,-5.55985 -13.2624,-13.9912 -13.2624,-25.2822l0 -127.243 -35.3584 0 0 -20.1883 35.3584 0 2.72815 -52.8027z"/>
   <path id="_494314976" class="fil1" d="M3897.62 3839.19c-22.566,0 -39.5283,6.55951 -50.9109,19.7024 -11.3388,13.0991 -17.0061,30.9974 -17.0061,53.6709 0,19.4635 5.59172,35.7846 16.7791,48.8518 11.1834,13.1389 26.8554,19.6905 47.0795,19.6905 19.1568,0 34.8726,-6.09354 47.2428,-18.2806 12.3782,-12.215 18.5474,-30.0296 18.5474,-53.4439 0,-22.2514 -6.06167,-39.5323 -18.1691,-51.7911 -12.0676,-12.2627 -26.6204,-18.4001 -43.5628,-18.4001zm-2.29005 -21.9128c28.2692,0 51.8389,8.43537 70.7567,25.3698 18.8979,16.8986 28.3568,39.2695 28.3568,67.1603 0,16.0941 -3.71586,31.3001 -11.1874,45.59 -7.47155,14.2939 -19.0373,25.7084 -34.7093,34.2871 -15.6719,8.54688 -33.8729,12.8363 -54.5949,12.8363 -30.7664,0 -55.0609,-8.7739 -72.7959,-26.2062 -17.7031,-17.4642 -26.5885,-39.3053 -26.5885,-65.5872 0,-20.957 5.59172,-39.0106 16.7353,-54.2882 11.1874,-15.2179 24.8282,-25.557 40.9223,-30.9974 16.1299,-5.44037 30.4637,-8.16454 43.1048,-8.16454z"/>
   <path id="_494315552" class="fil1" d="M4215.14 3846.83c7.04938,-9.9249 15.6719,-17.3088 25.9354,-22.2195 10.2754,-4.90669 22.0682,-7.32021 35.4062,-7.32021 19.6108,0 34.9044,4.48851 45.7852,13.4456 10.8847,9.00489 16.3251,20.8534 16.3251,35.5576l0 132.106 -34.0282 0 0 -132.214c0,-8.47121 -3.28971,-15.1741 -9.84923,-20.1127 -6.57943,-4.95448 -14.8555,-7.39588 -24.7047,-7.39588 -14.2183,0 -26.4372,4.66773 -36.6329,14.0948 -10.1878,9.38325 -15.2498,20.1127 -15.2498,31.9931l0 113.634 -34.0561 0 0 -132.106c0,-9.03675 -2.7162,-15.7795 -8.20039,-20.3078 -5.51604,-4.55223 -13.8678,-6.77856 -25.0552,-6.77856 -15.2498,0 -27.855,4.67171 -37.772,14.0231 -9.9249,9.3474 -14.8674,21.1123 -14.8674,35.2071l0 109.962 -33.2237 0 0 -177.003 29.695 0 3.52868 22.6457c7.35207,-8.92922 16.0941,-15.5963 26.0548,-20.1246 10.0324,-4.4447 21.415,-6.62722 34.1756,-6.62722 14.2501,0 26.0867,2.41352 35.5138,7.32021 9.45892,4.91067 16.5521,12.2946 21.2198,22.2195z"/>
   <path id="_494314376" class="fil1" d="M4546.34 3906.99c-44.3633,3.74772 -72.4494,8.96108 -84.2103,15.7476 -11.7609,6.7467 -17.6593,15.3573 -17.6593,25.8159 0,9.3952 4.32123,17.2053 12.9478,23.3386 8.62255,6.1254 19.5033,9.23191 32.6024,9.23191 16.3211,0 29.8424,-4.71154 40.4205,-14.1744 10.5781,-9.42308 15.899,-21.5345 15.899,-36.3262l0 -23.6334zm-117.51 -73.7517c27.5125,-10.6537 50.656,-15.9746 69.4305,-15.9746 27.0107,0 47.43,5.44037 61.3416,16.1578 13.824,10.9285 20.7658,25.557 20.7658,43.9531l0 93.5179c0,6.82237 4.66773,10.2316 14.051,10.2316 4.86686,0 9.72974,-0.923987 14.5966,-2.79984l0 20.0808c-8.65441,2.71222 -17.508,4.09422 -26.5089,4.09422 -23.4063,0 -35.4381,-9.49476 -36.1669,-28.4684 -8.84957,9.42706 -18.6152,16.5521 -29.4959,21.3114 -10.8051,4.78721 -22.4585,7.15692 -35.0996,7.15692 -20.5388,0 -37.6963,-5.12972 -51.5641,-15.433 -13.8718,-10.2754 -20.8096,-22.8408 -20.8096,-37.7401 0,-15.7476 8.57874,-28.771 25.8238,-39.1978 17.1615,-10.3391 54.2165,-17.4283 111.145,-21.188l0 -15.202c0,-10.0046 -4.7434,-18.3244 -14.1705,-24.7963 -9.47087,-6.54756 -21.2676,-9.76161 -35.2549,-9.76161 -19.9932,0 -42.7145,6.89406 -68.0843,20.6862l0 -26.6284z"/>
   <path id="_494316920" class="fil1" d="M4679.99 3768.59l30.5712 0 0 52.8027 48.8956 0 0 20.1883 -48.8956 0 0 123.743c0,5.21336 1.95551,9.16818 5.94219,11.7729 3.94288,2.7162 9.88109,4.01855 17.8106,4.01855 7.21268,0 15.5644,-1.99533 25.1428,-5.93821l0 23.2192c-11.8804,2.7162 -23.5258,4.09422 -34.8726,4.09422 -13.8279,0 -25.2065,-2.79188 -34.0601,-8.38359 -8.80576,-5.55985 -13.2146,-13.9912 -13.2146,-25.2822l0 -127.243 -35.3624 0 0 -20.1883 35.3624 0 2.68036 -52.8027z"/>
   <path id="_494315648" class="fil1" d="M4822.92 3821.38l34.0242 0 0 177.003 -34.0242 0 0 -177.003zm17.3964 -78.4314c13.4018,0 20.1485,6.96973 20.1485,20.8853 0,14.7161 -6.89804,22.0243 -20.6901,22.0243 -13.2505,0 -19.81,-7.08125 -19.81,-21.2637 0,-14.4453 6.74272,-21.646 20.3516,-21.646z"/>
   <path id="_494316752" class="fil1" d="M5028.35 3839.19c-22.5979,0 -39.5283,6.55951 -50.9109,19.7024 -11.3826,13.0991 -17.05,30.9974 -17.05,53.6709 0,19.4635 5.55985,35.7846 16.7791,48.8518 11.1516,13.1389 26.8554,19.6905 47.1233,19.6905 19.1249,0 34.8726,-6.09354 47.207,-18.2806 12.3703,-12.215 18.5395,-30.0296 18.5395,-53.4439 0,-22.2514 -6.04973,-39.5323 -18.1253,-51.7911 -12.0995,-12.2627 -26.6642,-18.4001 -43.5628,-18.4001zm-2.33386 -21.9128c28.2812,0 51.8787,8.43537 70.7647,25.3698 18.89,16.8986 28.3568,39.2695 28.3568,67.1603 0,16.0941 -3.72383,31.3001 -11.1954,45.59 -7.47155,14.2939 -19.0373,25.7084 -34.7093,34.2871 -15.6719,8.54688 -33.8649,12.8363 -54.5511,12.8363 -30.7704,0 -55.0649,-8.7739 -72.7998,-26.2062 -17.735,-17.4642 -26.5845,-39.3053 -26.5845,-65.5872 0,-20.957 5.54791,-39.0106 16.7035,-54.2882 11.1874,-15.2179 24.8282,-25.557 40.9103,-30.9974 16.0941,-5.44037 30.4637,-8.16454 43.1048,-8.16454z"/>
   <path id="_494314808" class="fil1" d="M5195.64 3821.39l30.8102 0 3.21404 25.2065c8.96905,-9.77355 19.1568,-17.0818 30.615,-21.9925 11.3706,-4.90669 24.0237,-7.32021 37.8914,-7.32021 21.9168,0 38.9548,5.06202 51.2176,15.2179 12.2269,10.1878 18.3204,23.7051 18.3204,40.6833l0 125.208 -34.0242 0 0 -125.208c0,-10.4148 -3.98669,-18.6908 -11.8804,-24.9038 -7.92956,-6.20107 -18.2368,-9.27572 -30.8022,-9.27572 -17.1256,0 -31.6028,5.1815 -43.4832,15.4887 -11.8804,10.3829 -17.8106,22.2514 -17.8106,35.7846l0 108.114 -34.068 0 0 -177.003z"/>
   <path id="_494310176" class="fil1" d="M5585.69 3959.94c25.2185,14.1386 49.2302,21.188 72.1467,21.188 17.6593,0 32.2559,-3.07465 43.7142,-9.24385 11.5339,-6.16522 17.3208,-13.9434 17.3208,-23.4024 0,-6.81839 -3.83136,-12.5336 -11.502,-17.0818 -7.62289,-4.63985 -22.4465,-9.16818 -44.439,-13.6408 -27.0107,-5.55985 -46.7012,-11.9162 -59.1551,-19.1249 -12.4459,-7.15692 -18.659,-17.1615 -18.659,-29.9221 0,-14.5966 8.39554,-26.8155 25.1747,-36.6648 16.7473,-9.84923 37.4334,-14.7918 62.1421,-14.7918 19.7662,0 42.3003,4.835 67.475,14.4453l0 26.25c-21.3831,-12.8801 -43.3756,-19.2763 -65.8659,-19.2763 -15.5086,0 -28.2692,2.79984 -38.23,8.54688 -10.0006,5.7112 -14.9869,12.6411 -14.9869,20.6862 0,6.82237 4.48452,12.4141 13.5332,16.7473 8.76195,4.52037 23.478,8.73407 43.973,12.673 50.425,9.65806 75.6753,26.1743 75.6753,49.4253 0,15.7157 -9.27572,28.9662 -27.7077,39.6518 -18.4598,10.7732 -40.8347,16.0981 -67.1165,16.0981 -24.3383,0 -48.816,-5.40055 -73.4928,-16.2056l0 -26.3575z"/>
   <path id="_494316968" class="fil1" d="M5912.14 3839.19c-22.57,0 -39.5443,6.55951 -50.883,19.7024 -11.3786,13.0991 -17.05,30.9974 -17.05,53.6709 0,19.4635 5.55189,35.7846 16.7791,48.8518 11.1874,13.1389 26.9032,19.6905 47.1233,19.6905 19.1249,0 34.8287,-6.09354 47.199,-18.2806 12.3384,-12.215 18.5076,-30.0296 18.5076,-53.4439 0,-22.2514 -6.00592,-39.5323 -18.1173,-51.7911 -12.0756,-12.2627 -26.6284,-18.4001 -43.5588,-18.4001zm-2.302 -21.9128c28.2692,0 51.8787,8.43537 70.7647,25.3698 18.886,16.8986 28.3887,39.2695 28.3887,67.1603 0,16.0941 -3.75569,31.3001 -11.2312,45.59 -7.50341,14.2939 -19.0811,25.7084 -34.7093,34.2871 -15.6281,8.54688 -33.8609,12.8363 -54.5949,12.8363 -30.7664,0 -55.0171,-8.7739 -72.7959,-26.2062 -17.735,-17.4642 -26.5845,-39.3053 -26.5845,-65.5872 0,-20.957 5.59172,-39.0106 16.7473,-54.2882 11.1834,-15.2179 24.8242,-25.557 40.9103,-30.9974 16.126,-5.44037 30.4637,-8.16454 43.1048,-8.16454z"/>
   <polygon id="_494315264" class="fil1" points="6078.93,3739.23 6112.96,3739.23 6112.96,3998.42 6078.93,3998.42 "/>
   <path id="_494309696" class="fil1" d="M6329.32 3821.39l34.0601 0 0 177.003 -34.0601 0 0 -24.3264c-9.54654,9.38325 -19.9613,16.5043 -31.2642,21.2637 -11.3388,4.78721 -23.5696,7.20073 -36.6648,7.20073 -21.9606,0 -39.0863,-5.13769 -51.3809,-15.4768 -12.3384,-10.2316 -18.5076,-24.0237 -18.5076,-41.225l0 -124.44 33.5264 0 0 124.44c0,11.7609 3.56452,20.5667 10.8051,26.477 7.15692,5.89838 17.9341,8.80576 32.2997,8.80576 17.962,0 32.6343,-5.21336 44.0925,-15.6719 11.4144,-10.4984 17.0938,-23.9002 17.0938,-40.4205l0 -103.63z"/>
   <path id="_494316608" class="fil1" d="M6458.13 3768.59l30.5394 0 0 52.8027 48.8837 0 0 20.1883 -48.8837 0 0 123.743c0,5.21336 1.98737,9.16818 5.93025,11.7729 3.98669,2.7162 9.9249,4.01855 17.8545,4.01855 7.16887,0 15.5604,-1.99533 25.099,-5.93821l0 23.2192c-11.8844,2.7162 -23.5258,4.09422 -34.8287,4.09422 -13.8718,0 -25.2105,-2.79188 -34.0919,-8.38359 -8.7739,-5.55985 -13.1867,-13.9912 -13.1867,-25.2822l0 -127.243 -35.3584 0 0 -20.1883 35.3584 0 2.68434 -52.8027z"/>
   <path id="_494314016" class="fil1" d="M6601.06 3821.38l33.9844 0 0 177.003 -33.9844 0 0 -177.003zm17.3885 -78.4314c13.4576,0 20.1127,6.96973 20.1127,20.8853 0,14.7161 -6.89406,22.0243 -20.6862,22.0243 -13.2186,0 -19.798,-7.08125 -19.798,-21.2637 0,-14.4453 6.77458,-21.646 20.3715,-21.646z"/>
   <path id="_494312528" class="fil1" d="M6806.47 3839.19c-22.57,0 -39.5443,6.55951 -50.9228,19.7024 -11.3388,13.0991 -17.0101,30.9974 -17.0101,53.6709 0,19.4635 5.55985,35.7846 16.7791,48.8518 11.1556,13.1389 26.8594,19.6905 47.1233,19.6905 19.0811,0 34.8287,-6.09354 47.211,-18.2806 12.3384,-12.215 18.5076,-30.0296 18.5076,-53.4439 0,-22.2514 -6.06167,-39.5323 -18.1293,-51.7911 -12.0636,-12.2627 -26.6284,-18.4001 -43.5588,-18.4001zm-2.33386 -21.9128c28.2692,0 51.8667,8.43537 70.7965,25.3698 18.886,16.8986 28.3568,39.2695 28.3568,67.1603 0,16.0941 -3.72383,31.3001 -11.1954,45.59 -7.5074,14.2939 -19.0732,25.7084 -34.7451,34.2871 -15.6361,8.54688 -33.8729,12.8363 -54.563,12.8363 -30.7664,0 -55.0171,-8.7739 -72.7959,-26.2062 -17.735,-17.4642 -26.5845,-39.3053 -26.5845,-65.5872 0,-20.957 5.55985,-39.0106 16.7035,-54.2882 11.2272,-15.2179 24.868,-25.557 40.9223,-30.9974 16.126,-5.44037 30.4956,-8.16454 43.1048,-8.16454z"/>
   <path id="_494314112" class="fil1" d="M6973.78 3821.39l30.7664 0 3.22599 25.2065c9.00489,-9.77355 19.1926,-17.0818 30.6509,-21.9925 11.3348,-4.90669 23.9799,-7.32021 37.8914,-7.32021 21.9168,0 38.923,5.06202 51.2176,15.2179 12.1831,10.1878 18.2766,23.7051 18.2766,40.6833l0 125.208 -33.9804 0 0 -125.208c0,-10.4148 -4.01855,-18.6908 -11.9162,-24.9038 -7.89372,-6.20107 -18.201,-9.27572 -30.8102,-9.27572 -17.0818,0 -31.5589,5.1815 -43.4393,15.4887 -11.9162,10.3829 -17.8545,22.2514 -17.8545,35.7846l0 108.114 -34.0282 0 0 -177.003z"/>
   <path id="_494315936" class="fil2" d="M4312.98 1056.93c0,172.634 -139.916,312.515 -312.563,312.515 -172.59,0 -312.519,-139.881 -312.519,-312.515 0,-172.606 139.928,-312.531 312.519,-312.531 172.646,0 312.563,139.924 312.563,312.531z"/>
   <path id="_494313752" class="fil3" d="M2698.64 1071.88c10.351,-443.669 173.06,-791.817 502.553,-1061.58 11.8047,-9.65806 42.7225,-14.0988 51.6835,-6.32055 23.49,20.3397 1.76035,38.3455 -14.9789,52.1057 -116.781,95.9752 -216.663,206.24 -293.704,335.662 -145.054,243.554 -206.511,505.648 -173.789,786.867 46.8525,402.213 245.088,713.696 587.023,937.552 6.86618,4.52833 16.8667,7.54722 19.8538,13.8359 7.16887,15.0506 10.9923,31.6466 16.1738,47.6212 -16.3251,0.577492 -37.3617,7.97337 -48.1668,0.653163 -66.5111,-44.9846 -135.32,-88.3164 -194.858,-141.49 -229.575,-205.053 -373.171,-459.341 -429.451,-759.442 -14.1386,-75.0899 -16.7791,-152.295 -22.339,-205.468z"/>
   <path id="_494313992" class="fil3" d="M3020.3 1029.22c-2.302,-253.666 109.341,-523.005 352.406,-730.742 9.9926,-8.57874 31.7581,-2.52902 48.0354,-3.25785 -4.01855,16.357 -2.75603,38.9668 -12.9,48.0792 -81.3786,73.3733 -151.231,155.827 -207.009,251.603 -235.051,403.898 -114.252,957.482 266.698,1217.63 11.0321,7.50341 25.326,12.673 32.2957,23.0997 8.96108,13.4098 12.1114,30.9496 17.7031,46.7729 -16.2136,1.07533 -38.1623,9.85321 -47.7407,2.10685 -68.6618,-55.0489 -141.565,-106.932 -200.298,-172.136 -154.708,-171.909 -235.9,-378.341 -249.19,-683.157z"/>
   <path id="_494316776" class="fil3" d="M3340.62 1074.68c5.78687,-206.694 75.9024,-374.398 220.682,-506.492 16.1738,-14.7161 35.0996,-33.7972 54.1727,-12.0795 19.3838,22.0363 -0.489873,39.7713 -16.7353,54.7144 -137.853,126.515 -207.272,285.663 -200.613,476.957 7.01354,200.461 92.8766,358.611 249.146,475.467 18.432,13.7602 53.1093,24.402 33.3751,56.5146 -20.5388,33.2874 -44.5943,4.40089 -63.0223,-9.04472 -180.835,-131.76 -268.729,-315.394 -277.005,-536.036z"/>
   <path id="_494311640" class="fil3" d="M5308.08 1071.88c-10.3829,-443.669 -173.104,-791.817 -502.553,-1061.58 -11.8366,-9.65806 -42.7225,-14.0988 -51.6835,-6.32055 -23.5218,20.3397 -1.80416,38.3455 15.0188,52.1057 116.741,95.9752 216.623,206.24 293.665,335.662 145.018,243.554 206.467,505.648 173.757,786.867 -46.8207,402.213 -245.1,713.696 -587.003,937.552 -6.85423,4.52833 -16.8906,7.54722 -19.8777,13.8359 -7.13302,15.0506 -11.0002,31.6466 -16.1698,47.6212 16.3251,0.577492 37.4255,7.97337 48.1549,0.653163 66.5111,-44.9846 135.364,-88.3164 194.87,-141.49 229.563,-205.053 373.159,-459.341 429.439,-759.442 14.1067,-75.0899 16.7911,-152.295 22.3828,-205.468z"/>
   <path id="_494316440" class="fil3" d="M4986.38 1029.22c2.33386,-253.666 -109.341,-523.005 -352.41,-730.742 -9.98862,-8.57874 -31.7222,-2.52902 -47.9995,-3.25785 3.9827,16.357 2.72417,38.9668 12.9119,48.0792 81.3348,73.3733 151.187,155.827 206.965,251.603 235.095,403.898 114.284,957.482 -266.698,1217.63 -11.0321,7.50341 -25.326,12.673 -32.2997,23.0997 -8.9571,13.4098 -12.0636,30.9496 -17.7031,46.7729 16.2176,1.07533 38.2101,9.85321 47.7885,2.10685 68.614,-55.0489 141.565,-106.932 200.254,-172.136 154.704,-171.909 235.896,-378.341 249.19,-683.157z"/>
   <path id="_494316584" class="fil3" d="M4666.06 1074.68c-5.74306,-206.694 -75.8904,-374.398 -220.682,-506.492 -16.1578,-14.7161 -35.0876,-33.7972 -54.2046,-12.0795 -19.352,22.0363 0.533682,39.7713 16.7791,54.7144 137.885,126.515 207.272,285.663 200.569,476.957 -6.96973,200.461 -92.8766,358.611 -249.158,475.467 -18.3842,13.7602 -53.0536,24.402 -33.2874,56.5146 20.495,33.2874 44.5943,4.40089 63.0223,-9.04472 180.763,-131.76 268.685,-315.394 276.961,-536.036z"/>
  </g>
 </g>
</svg>
